<svg id="Слой_1" data-name="Слой 1" xmlns="http://www.w3.org/2000/svg" viewBox="0 0 150 190"><defs><style>.cls-1{fill-rule:evenodd;}</style></defs><title>Монтажная область 29</title><path class="cls-1" d="M128.06,147.83,8.23,147.48l2.32-8.28L1.31,128.52l12.56-1,0-9.31,6.2-1,2.39-9.43,6.46,0,.81,7.85,6.62-1.12.36,11.14,10-.91.15-12,7.66-1.3.17-8.07L54,97.68l-3.86,2.42-6.69-5.9,10-.85-.68-5.59,10.8-.36,3.27,14.66-7.25.72.55,7.57,7.71-1.3,2.38,4.11,2.36-.2,11-25.52.1-5.08-.67-5.56-3.86,2.42-6.69-5.9,10-.85-.67-5.59,10.79-.36,3.27,14.67-7.25.71L89,86.55l3.85,0L96.6,102.7l6.49.47,2.58,7h11.42l4,8.65,27.61-2.24ZM72,122.6l-9.81,14,6.2-.54,9.9-14Zm12-1-9.5,13.94,6-.53,9.68-13.92Zm12-1-9.5,13.87,6-.53L102,120.14Z"/></svg>